<svg width="188" height="136" viewBox="0 0 188 136" fill="none" xmlns="http://www.w3.org/2000/svg">
<g filter="url(#filter0_i_1_1932)">
<rect width="114.438" height="114.438" rx="18.3624" transform="matrix(0.976818 0.19826 0.496042 0.933021 9.61145 3.08105)" fill="url(#paint0_linear_1_1932)"/>
</g>
<path d="M91.401 71.07L83.0415 69.581L73.4078 54.1189C73.1268 53.6763 72.5788 52.6028 71.7636 50.8985L71.6908 50.8855C72.1118 52.3402 72.3624 53.3606 72.4425 53.947L74.5363 68.066L65.685 66.4893L48.9085 39.3739L57.5412 40.9116L65.9348 56.607C66.0497 56.807 66.3323 57.3789 66.7828 58.3228L67.5025 59.8475L67.6118 59.867C67.5086 59.557 67.3657 59.038 67.1831 58.31C66.9956 57.5699 66.8804 57.0223 66.8377 56.6669L64.6987 42.1866L73.2768 43.7146L82.8801 59.7264L83.7421 61.3101L84.5347 62.8477L84.6076 62.8607L84.4048 62.2357L83.6191 59.7571L79.6876 44.8565L87.4461 46.2385L91.401 71.07Z" fill="#8CA7FE" fill-opacity="0.42"/>
<path d="M99.0976 72.441L88.5498 46.4351L104.814 49.3321L107.3 55.4618L98.9038 53.9663L100.441 57.7565L108.327 59.1612L110.813 65.2909L102.927 63.8862L104.479 67.7127L113.476 69.3154L115.962 75.4451L99.0976 72.441Z" fill="#8CA7FE" fill-opacity="0.42"/>
<path d="M136.887 71.7692C137.921 74.3202 137.822 76.1309 136.589 77.2012C135.351 78.2594 133.063 78.4911 129.724 77.8963L117.813 75.7747L107.265 49.7687L118.356 51.7444C125.289 52.9794 129.606 55.6945 131.308 59.8897C131.676 60.7965 131.796 61.5918 131.667 62.2756C131.534 62.9473 131.134 63.4873 130.466 63.8955C129.81 64.3059 128.989 64.5186 128.004 64.5339L128.034 64.6064C129.331 64.9721 130.592 65.5387 131.815 66.3063C133.034 67.0618 134.09 67.9285 134.982 68.9062C135.869 69.8718 136.504 70.8262 136.887 71.7692ZM123.5 59.7608C122.848 58.1528 121.253 57.1228 118.715 56.6708L117.258 56.4113L119.252 61.3259L121.528 61.7315C122.403 61.8872 123.026 61.7851 123.398 61.4251C123.765 61.0531 123.799 60.4983 123.5 59.7608ZM128.512 70.2439C128.208 69.4943 127.685 68.829 126.943 68.2481C126.2 67.6672 125.38 67.2967 124.481 67.1367L121.385 66.5852L123.54 71.8988L126.163 72.3659C127.231 72.5563 127.977 72.4648 128.4 72.0915C128.818 71.7061 128.856 71.0902 128.512 70.2439Z" fill="#8CA7FE" fill-opacity="0.42"/>
<defs>
<filter id="filter0_i_1_1932" x="16.5355" y="1.74485" width="159.294" height="127.543" filterUnits="userSpaceOnUse" color-interpolation-filters="sRGB">
<feFlood flood-opacity="0" result="BackgroundImageFix"/>
<feBlend mode="normal" in="SourceGraphic" in2="BackgroundImageFix" result="shape"/>
<feColorMatrix in="SourceAlpha" type="matrix" values="0 0 0 0 0 0 0 0 0 0 0 0 0 0 0 0 0 0 127 0" result="hardAlpha"/>
<feOffset dx="5.55938" dy="-9.26563"/>
<feGaussianBlur stdDeviation="2.2953"/>
<feComposite in2="hardAlpha" operator="arithmetic" k2="-1" k3="1"/>
<feColorMatrix type="matrix" values="0 0 0 0 0.00947917 0 0 0 0 0.122265 0 0 0 0 0.379167 0 0 0 0.83 0"/>
<feBlend mode="normal" in2="shape" result="effect1_innerShadow_1_1932"/>
</filter>
<linearGradient id="paint0_linear_1_1932" x1="77.7002" y1="8.20019" x2="32.4211" y2="125.734" gradientUnits="userSpaceOnUse">
<stop offset="0.26344" stop-color="#030924"/>
<stop offset="1" stop-color="#1C3190"/>
</linearGradient>
</defs>
</svg>
