<svg width="96" height="27" viewBox="0 0 96 27" fill="none" xmlns="http://www.w3.org/2000/svg">
<g id="EpicDev">
<path d="M0 20.6438V2.16384H13.86V5.27184H3.864V9.86384H11.732V12.8318H3.864V17.5358H14.252V20.6438H0Z" fill="white"/>
<path d="M15.3268 26.5238V6.64384H18.7708L19.0228 11.0958L18.5467 10.5918C18.7147 9.77051 19.0227 9.04251 19.4707 8.40784C19.9374 7.77317 20.5254 7.27851 21.2347 6.92384C21.9441 6.55051 22.7374 6.36384 23.6147 6.36384C24.7534 6.36384 25.7708 6.65317 26.6668 7.23184C27.5628 7.81051 28.2628 8.64118 28.7668 9.72384C29.2894 10.7878 29.5508 12.0852 29.5508 13.6158C29.5508 15.1465 29.2894 16.4625 28.7668 17.5638C28.2441 18.6465 27.5254 19.4772 26.6108 20.0558C25.7148 20.6345 24.6881 20.9238 23.5308 20.9238C22.2987 20.9238 21.2721 20.5785 20.4508 19.8878C19.6481 19.1972 19.0974 18.3292 18.7988 17.2838L19.1628 16.6958V26.5238H15.3268ZM22.4108 17.9838C23.4374 17.9838 24.2401 17.6198 24.8187 16.8918C25.4161 16.1452 25.7148 15.0625 25.7148 13.6438C25.7148 12.2252 25.4254 11.1518 24.8468 10.4238C24.2868 9.67717 23.4934 9.30384 22.4668 9.30384C21.8134 9.30384 21.2348 9.48117 20.7308 9.83584C20.2454 10.1718 19.8627 10.6665 19.5827 11.3198C19.3027 11.9545 19.1628 12.7292 19.1628 13.6438C19.1628 14.5212 19.2934 15.2958 19.5547 15.9678C19.8161 16.6212 20.1894 17.1252 20.6748 17.4798C21.1788 17.8158 21.7574 17.9838 22.4108 17.9838Z" fill="white"/>
<path d="M32.8134 4.62784C32.0108 4.62784 31.4134 4.45984 31.0214 4.12384C30.6294 3.76917 30.4334 3.25584 30.4334 2.58384C30.4334 1.89317 30.6294 1.37984 31.0214 1.04384C31.4134 0.689174 32.0108 0.511841 32.8134 0.511841C33.6161 0.511841 34.2134 0.689174 34.6054 1.04384C34.9974 1.37984 35.1934 1.89317 35.1934 2.58384C35.1934 3.25584 34.9974 3.76917 34.6054 4.12384C34.2134 4.45984 33.6161 4.62784 32.8134 4.62784ZM34.7174 6.64384V20.6438H30.8814V6.64384H34.7174Z" fill="white"/>
<path d="M43.1398 6.36384C44.3904 6.36384 45.4451 6.55051 46.3038 6.92384C47.1811 7.27851 47.8811 7.77317 48.4038 8.40784C48.9451 9.02384 49.3278 9.71451 49.5518 10.4798L45.9678 11.7678C45.7811 10.9278 45.4638 10.2932 45.0158 9.86384C44.5678 9.43451 43.9611 9.21984 43.1958 9.21984C42.4864 9.21984 41.8798 9.38784 41.3758 9.72384C40.8718 10.0412 40.4891 10.5358 40.2278 11.2078C39.9664 11.8612 39.8358 12.6825 39.8358 13.6718C39.8358 14.6612 39.9664 15.4825 40.2278 16.1358C40.5078 16.7892 40.8998 17.2745 41.4038 17.5918C41.9264 17.9092 42.5331 18.0678 43.2238 18.0678C43.7838 18.0678 44.2598 17.9745 44.6518 17.7878C45.0438 17.5825 45.3611 17.2932 45.6038 16.9198C45.8651 16.5465 46.0424 16.0985 46.1358 15.5758L49.6078 16.6958C49.4024 17.5358 49.0198 18.2732 48.4598 18.9078C47.8998 19.5425 47.1811 20.0372 46.3038 20.3918C45.4264 20.7465 44.4091 20.9238 43.2518 20.9238C41.8144 20.9238 40.5451 20.6345 39.4438 20.0558C38.3424 19.4772 37.4931 18.6465 36.8958 17.5638C36.2984 16.4812 35.9998 15.1745 35.9998 13.6438C35.9998 12.1132 36.2984 10.8065 36.8958 9.72384C37.4931 8.64118 38.3331 7.81051 39.4158 7.23184C40.4984 6.65317 41.7398 6.36384 43.1398 6.36384Z" fill="white"/>
<path d="M58.1205 2.16384C61.0138 2.16384 63.2538 2.96651 64.8405 4.57184C66.4271 6.15851 67.2205 8.43584 67.2205 11.4038C67.2205 14.3532 66.4271 16.6305 64.8405 18.2358C63.2538 19.8412 61.0138 20.6438 58.1205 20.6438H50.9805V2.16384H58.1205ZM57.9245 17.5638C59.6791 17.5638 60.9951 17.0412 61.8725 15.9958C62.7685 14.9318 63.2165 13.4012 63.2165 11.4038C63.2165 9.40651 62.7685 7.88517 61.8725 6.83984C60.9951 5.77584 59.6791 5.24384 57.9245 5.24384H54.8445V17.5638H57.9245Z" fill="white"/>
<path d="M75.2095 20.9238C73.7348 20.9238 72.4468 20.6345 71.3455 20.0558C70.2628 19.4772 69.4228 18.6465 68.8255 17.5638C68.2281 16.4812 67.9295 15.1745 67.9295 13.6438C67.9295 12.1132 68.2281 10.8065 68.8255 9.72384C69.4228 8.64118 70.2535 7.81051 71.3175 7.23184C72.4001 6.65317 73.6321 6.36384 75.0135 6.36384C76.4321 6.36384 77.6361 6.65317 78.6255 7.23184C79.6148 7.79184 80.3708 8.56651 80.8935 9.55584C81.4161 10.5265 81.6775 11.6372 81.6775 12.8878C81.6775 13.2612 81.6681 13.6158 81.6495 13.9518C81.6308 14.2878 81.6028 14.5865 81.5655 14.8478H70.3935V12.1878H79.8855L78.0375 12.8598C78.0375 11.6838 77.7668 10.7785 77.2255 10.1438C76.7028 9.50917 75.9561 9.19184 74.9855 9.19184C74.2761 9.19184 73.6601 9.35984 73.1375 9.69584C72.6335 10.0318 72.2508 10.5358 71.9895 11.2078C71.7281 11.8612 71.5975 12.6918 71.5975 13.6998C71.5975 14.6892 71.7375 15.5105 72.0175 16.1638C72.3161 16.7985 72.7268 17.2745 73.2495 17.5918C73.7908 17.9092 74.4348 18.0678 75.1815 18.0678C76.0028 18.0678 76.6655 17.9092 77.1695 17.5918C77.6735 17.2745 78.0655 16.8358 78.3455 16.2758L81.3975 17.4518C81.0988 18.1798 80.6415 18.8052 80.0255 19.3278C79.4281 19.8505 78.7095 20.2518 77.8695 20.5318C77.0481 20.7932 76.1615 20.9238 75.2095 20.9238Z" fill="white"/>
<path d="M91.6748 6.64384H95.6508L90.3308 20.6438H85.9068L80.5868 6.64384H84.7028L88.1468 17.7038L91.6748 6.64384Z" fill="white"/>
</g>
</svg>
