<svg width="206" height="122" viewBox="0 0 206 122" fill="none" xmlns="http://www.w3.org/2000/svg">
<g id="Element">
<g id="Rectangle 7" filter="url(#filter0_i_1_1975)">
<rect width="123.508" height="123.508" rx="19.8177" transform="matrix(0.997564 0.0697565 0.515038 0.857167 9.56909 3.28931)" fill="url(#paint0_linear_1_1975)"/>
</g>
<g id="WEB">
<path d="M100.28 64.3481L91.0681 63.9251L80.3018 48.7909C79.988 48.3584 79.3734 47.2909 78.458 45.5884L78.3778 45.5847C78.8568 47.0761 79.1436 48.1285 79.2382 48.7421L81.6961 63.4947L71.9429 63.0467L53.192 36.49L62.7045 36.9269L72.1092 52.4823C72.2378 52.6793 72.5549 53.2494 73.0608 54.1924L73.8692 55.7168L73.9896 55.7223C73.8727 55.4064 73.7098 54.8733 73.5009 54.123C73.2866 53.3606 73.1539 52.7931 73.103 52.4204L70.5914 37.2891L80.0436 37.7232L90.7825 53.4474L91.748 55.0148L92.6367 56.5429L92.717 56.5466L92.487 55.9089L91.5957 53.3772L87.1077 38.0476L95.6569 38.4402L100.28 64.3481Z" fill="#8CA7FE" fill-opacity="0.42"/>
<path d="M108.76 64.7376L96.873 38.4961L114.794 39.3191L117.596 45.5044L108.345 45.0795L110.077 48.9041L118.767 49.3032L121.569 55.4884L112.879 55.0893L114.628 58.9505L124.542 59.4058L127.344 65.5911L108.76 64.7376Z" fill="#8CA7FE" fill-opacity="0.42"/>
<path d="M150.319 58.762C151.485 61.3361 151.396 63.2792 150.051 64.5912C148.701 65.891 146.187 66.4565 142.508 66.2875L129.383 65.6847L117.495 39.4432L129.717 40.0045C137.356 40.3553 142.135 42.6474 144.053 46.8807C144.467 47.7957 144.608 48.6264 144.474 49.3728C144.335 50.1071 143.901 50.7382 143.17 51.2661C142.453 51.7946 141.553 52.1356 140.47 52.2889L140.503 52.3621C141.934 52.5712 143.327 52.9995 144.681 53.647C146.03 54.2824 147.201 55.0589 148.193 55.9765C149.179 56.8819 149.888 57.8104 150.319 58.762ZM135.463 47.8301C134.728 46.2075 132.962 45.332 130.166 45.2036L128.561 45.1299L130.807 50.0891L133.316 50.2043C134.279 50.2485 134.963 50.053 135.369 49.6177C135.769 49.1701 135.8 48.5743 135.463 47.8301ZM141.091 58.3023C140.749 57.5459 140.166 56.9099 139.343 56.3943C138.519 55.8786 137.613 55.5981 136.623 55.5526L133.211 55.3959L135.64 60.7577L138.53 60.8904C139.707 60.9445 140.527 60.7432 140.988 60.2866C141.444 59.8177 141.478 59.1563 141.091 58.3023Z" fill="#8CA7FE" fill-opacity="0.42"/>
</g>
</g>
<defs>
<filter id="filter0_i_1_1975" x="17.2919" y="-0.339691" width="176.328" height="116.786" filterUnits="userSpaceOnUse" color-interpolation-filters="sRGB">
<feFlood flood-opacity="0" result="BackgroundImageFix"/>
<feBlend mode="normal" in="SourceGraphic" in2="BackgroundImageFix" result="shape"/>
<feColorMatrix in="SourceAlpha" type="matrix" values="0 0 0 0 0 0 0 0 0 0 0 0 0 0 0 0 0 0 127 0" result="hardAlpha"/>
<feOffset dx="6" dy="-10"/>
<feGaussianBlur stdDeviation="2.47722"/>
<feComposite in2="hardAlpha" operator="arithmetic" k2="-1" k3="1"/>
<feColorMatrix type="matrix" values="0 0 0 0 0.00947917 0 0 0 0 0.122265 0 0 0 0 0.379167 0 0 0 0.83 0"/>
<feBlend mode="normal" in2="shape" result="effect1_innerShadow_1_1975"/>
</filter>
<linearGradient id="paint0_linear_1_1975" x1="83.8584" y1="8.85012" x2="34.9907" y2="135.699" gradientUnits="userSpaceOnUse">
<stop offset="0.26344" stop-color="#110A1F"/>
<stop offset="1" stop-color="#072659"/>
</linearGradient>
</defs>
</svg>
