<svg width="144" height="41" viewBox="0 0 144 41" fill="none" xmlns="http://www.w3.org/2000/svg">
<path d="M20 12.5178L4 20.5178V28.5178M20 20.5178L12 24.5178" stroke="white" stroke-width="2" stroke-linejoin="round"/>
<path d="M20 28.5178L4 20.5178V28.5178L20 36.5178V28.5178Z" stroke="white" stroke-width="2" stroke-linejoin="round"/>
<path d="M36 20.5178V12.5178L20 4.51782V12.5178L28 16.5178" stroke="white" stroke-width="2" stroke-linejoin="round"/>
<path d="M20 20.5178L36 12.5178V20.5178L20 28.5178V20.5178Z" stroke="white" stroke-width="2" stroke-linejoin="round"/>
<path d="M48 27.6438V9.16384H61.86V12.2718H51.864V16.8638H59.732V19.8318H51.864V24.5358H62.252V27.6438H48Z" fill="white"/>
<path d="M63.3268 33.5238V13.6438H66.7708L67.0228 18.0958L66.5467 17.5918C66.7147 16.7705 67.0227 16.0425 67.4707 15.4078C67.9374 14.7732 68.5254 14.2785 69.2347 13.9238C69.9441 13.5505 70.7374 13.3638 71.6147 13.3638C72.7534 13.3638 73.7708 13.6532 74.6668 14.2318C75.5628 14.8105 76.2628 15.6412 76.7668 16.7238C77.2894 17.7878 77.5508 19.0852 77.5508 20.6158C77.5508 22.1465 77.2894 23.4625 76.7668 24.5638C76.2441 25.6465 75.5254 26.4772 74.6108 27.0558C73.7148 27.6345 72.6881 27.9238 71.5308 27.9238C70.2987 27.9238 69.2721 27.5785 68.4508 26.8878C67.6481 26.1972 67.0974 25.3292 66.7988 24.2838L67.1628 23.6958V33.5238H63.3268ZM70.4108 24.9838C71.4374 24.9838 72.2401 24.6198 72.8187 23.8918C73.4161 23.1452 73.7148 22.0625 73.7148 20.6438C73.7148 19.2252 73.4254 18.1518 72.8468 17.4238C72.2868 16.6772 71.4934 16.3038 70.4668 16.3038C69.8134 16.3038 69.2348 16.4812 68.7308 16.8358C68.2454 17.1718 67.8627 17.6665 67.5827 18.3198C67.3027 18.9545 67.1628 19.7292 67.1628 20.6438C67.1628 21.5212 67.2934 22.2958 67.5547 22.9678C67.8161 23.6212 68.1894 24.1252 68.6748 24.4798C69.1788 24.8158 69.7574 24.9838 70.4108 24.9838Z" fill="white"/>
<path d="M80.8134 11.6278C80.0108 11.6278 79.4134 11.4598 79.0214 11.1238C78.6294 10.7692 78.4334 10.2558 78.4334 9.58384C78.4334 8.89317 78.6294 8.37984 79.0214 8.04384C79.4134 7.68917 80.0108 7.51184 80.8134 7.51184C81.6161 7.51184 82.2134 7.68917 82.6054 8.04384C82.9974 8.37984 83.1934 8.89317 83.1934 9.58384C83.1934 10.2558 82.9974 10.7692 82.6054 11.1238C82.2134 11.4598 81.6161 11.6278 80.8134 11.6278ZM82.7174 13.6438V27.6438H78.8814V13.6438H82.7174Z" fill="white"/>
<path d="M91.1398 13.3638C92.3904 13.3638 93.4451 13.5505 94.3038 13.9238C95.1811 14.2785 95.8811 14.7732 96.4038 15.4078C96.9451 16.0238 97.3278 16.7145 97.5518 17.4798L93.9678 18.7678C93.7811 17.9278 93.4638 17.2932 93.0158 16.8638C92.5678 16.4345 91.9611 16.2198 91.1958 16.2198C90.4864 16.2198 89.8798 16.3878 89.3758 16.7238C88.8718 17.0412 88.4891 17.5358 88.2278 18.2078C87.9664 18.8612 87.8358 19.6825 87.8358 20.6718C87.8358 21.6612 87.9664 22.4825 88.2278 23.1358C88.5078 23.7892 88.8998 24.2745 89.4038 24.5918C89.9264 24.9092 90.5331 25.0678 91.2238 25.0678C91.7838 25.0678 92.2598 24.9745 92.6518 24.7878C93.0438 24.5825 93.3611 24.2932 93.6038 23.9198C93.8651 23.5465 94.0424 23.0985 94.1358 22.5758L97.6078 23.6958C97.4024 24.5358 97.0198 25.2732 96.4598 25.9078C95.8998 26.5425 95.1811 27.0372 94.3038 27.3918C93.4264 27.7465 92.4091 27.9238 91.2518 27.9238C89.8144 27.9238 88.5451 27.6345 87.4438 27.0558C86.3424 26.4772 85.4931 25.6465 84.8958 24.5638C84.2984 23.4812 83.9998 22.1745 83.9998 20.6438C83.9998 19.1132 84.2984 17.8065 84.8958 16.7238C85.4931 15.6412 86.3331 14.8105 87.4158 14.2318C88.4984 13.6532 89.7398 13.3638 91.1398 13.3638Z" fill="white"/>
<path d="M106.12 9.16384C109.014 9.16384 111.254 9.96651 112.84 11.5718C114.427 13.1585 115.22 15.4358 115.22 18.4038C115.22 21.3532 114.427 23.6305 112.84 25.2358C111.254 26.8412 109.014 27.6438 106.12 27.6438H98.9805V9.16384H106.12ZM105.924 24.5638C107.679 24.5638 108.995 24.0412 109.872 22.9958C110.768 21.9318 111.216 20.4012 111.216 18.4038C111.216 16.4065 110.768 14.8852 109.872 13.8398C108.995 12.7758 107.679 12.2438 105.924 12.2438H102.844V24.5638H105.924Z" fill="white"/>
<path d="M123.209 27.9238C121.735 27.9238 120.447 27.6345 119.345 27.0558C118.263 26.4772 117.423 25.6465 116.825 24.5638C116.228 23.4812 115.929 22.1745 115.929 20.6438C115.929 19.1132 116.228 17.8065 116.825 16.7238C117.423 15.6412 118.253 14.8105 119.317 14.2318C120.4 13.6532 121.632 13.3638 123.013 13.3638C124.432 13.3638 125.636 13.6532 126.625 14.2318C127.615 14.7918 128.371 15.5665 128.893 16.5558C129.416 17.5265 129.677 18.6372 129.677 19.8878C129.677 20.2612 129.668 20.6158 129.649 20.9518C129.631 21.2878 129.603 21.5865 129.565 21.8478H118.393V19.1878H127.885L126.037 19.8598C126.037 18.6838 125.767 17.7785 125.225 17.1438C124.703 16.5092 123.956 16.1918 122.985 16.1918C122.276 16.1918 121.66 16.3598 121.137 16.6958C120.633 17.0318 120.251 17.5358 119.989 18.2078C119.728 18.8612 119.597 19.6918 119.597 20.6998C119.597 21.6892 119.737 22.5105 120.017 23.1638C120.316 23.7985 120.727 24.2745 121.249 24.5918C121.791 24.9092 122.435 25.0678 123.181 25.0678C124.003 25.0678 124.665 24.9092 125.169 24.5918C125.673 24.2745 126.065 23.8358 126.345 23.2758L129.397 24.4518C129.099 25.1798 128.641 25.8052 128.025 26.3278C127.428 26.8505 126.709 27.2518 125.869 27.5318C125.048 27.7932 124.161 27.9238 123.209 27.9238Z" fill="white"/>
<path d="M139.675 13.6438H143.651L138.331 27.6438H133.907L128.587 13.6438H132.703L136.147 24.7038L139.675 13.6438Z" fill="white"/>
</svg>
